<svg id="SvgjsSvg1011" width="288" height="288" xmlns="http://www.w3.org/2000/svg" version="1.1" xmlns:xlink="http://www.w3.org/1999/xlink" xmlns:svgjs="http://svgjs.com/svgjs"><defs id="SvgjsDefs1012"></defs><g id="SvgjsG1013" transform="matrix(1,0,0,1,0,0)"><svg xmlns="http://www.w3.org/2000/svg" viewBox="0 0 64 64" width="288" height="288"><path d="M32,2A30.034,30.034,0,0,0,2,32a29.6307,29.6307,0,0,0,1.1387,8.1758,1,1,0,1,0,1.9218-.5518A27.64,27.64,0,0,1,4,32a28,28,0,0,1,56,0,27.64,27.64,0,0,1-1.06,7.624,1,1,0,1,0,1.9218.5518A29.6307,29.6307,0,0,0,62,32,30.034,30.034,0,0,0,32,2Z" fill="#e2f3f5" class="color000 svgShape"></path><path d="M37.8383,35.5991a13,13,0,1,0-11.6766,0,28.89,28.89,0,0,0-16.5474,9.97,5.0514,5.0514,0,0,0,.1484,6.564,29.9923,29.9923,0,0,0,44.4746,0,5.0514,5.0514,0,0,0,.1484-6.564A28.89,28.89,0,0,0,37.8383,35.5991Z" fill="#e2f3f5" class="color000 svgShape"></path></svg></g></svg>