<svg id="SvgjsSvg1013" width="288" height="288" xmlns="http://www.w3.org/2000/svg" version="1.1" xmlns:xlink="http://www.w3.org/1999/xlink" xmlns:svgjs="http://svgjs.com/svgjs"><defs id="SvgjsDefs1014"></defs><g id="SvgjsG1015" transform="matrix(1,0,0,1,0,0)"><svg xmlns="http://www.w3.org/2000/svg" width="288" height="288" viewBox="0 0 48 48"><path style="line-height:normal;text-indent:0;text-align:start;text-decoration-line:none;text-decoration-style:solid;text-decoration-color:#000;text-transform:none;block-progression:tb;isolation:auto;mix-blend-mode:normal" d="M 24 0 C 10.751089 0 0 10.7511 0 24 C 0 37.2489 10.751089 48 24 48 C 37.248912 48 48 37.2489 48 24 C 48 10.7511 37.248912 0 24 0 z M 24 1 C 36.708472 1 47 11.2915 47 24 C 47 36.7085 36.708472 47 24 47 C 11.291529 47 1 36.7085 1 24 C 1 11.2915 11.291529 1 24 1 z M 10.5 11 C 10.223869 11 10.000028 11.2239 10 11.5 L 10 33.5 C 10.000028 33.7761 10.223869 34 10.5 34 L 14.75 34 L 14.75 33 L 11 33 L 11 16 L 35 16 L 35 26.236328 C 35.0092 26.284328 35.034233 26.3263 35.039062 26.375 C 35.317123 26.1484 35.659482 26.034144 36 26.027344 L 36 11.5 C 35.999972 11.2239 35.776131 11 35.5 11 L 10.5 11 z M 11 12 L 35 12 L 35 15 L 11 15 L 11 12 z M 12.5 13 A 0.5 0.5 0 0 0 12 13.5 A 0.5 0.5 0 0 0 12.5 14 A 0.5 0.5 0 0 0 13 13.5 A 0.5 0.5 0 0 0 12.5 13 z M 14.5 13 A 0.5 0.5 0 0 0 14 13.5 A 0.5 0.5 0 0 0 14.5 14 A 0.5 0.5 0 0 0 15 13.5 A 0.5 0.5 0 0 0 14.5 13 z M 16.5 13 A 0.5 0.5 0 0 0 16 13.5 A 0.5 0.5 0 0 0 16.5 14 A 0.5 0.5 0 0 0 17 13.5 A 0.5 0.5 0 0 0 16.5 13 z M 26.642578 16.628906 A 0.50005 0.50005 0 0 0 26.220703 16.871094 L 25.324219 18.365234 A 0.50005 0.50005 0 0 0 25.246094 18.40625 L 19.541016 22.130859 A 0.50005 0.50005 0 0 0 19.314453 22.546875 L 19.302734 26.970703 C 18.529516 26.915703 18.047858 26.770709 17.755859 26.599609 C 17.386736 26.383309 17.244319 26.132944 17.068359 25.777344 C 16.892399 25.421744 16.704084 24.945419 16.230469 24.574219 C 15.756854 24.205019 15.0625 24 14 24 A 0.50005 0.50005 0 1 0 14 25 C 14.9375 25 15.369123 25.171981 15.613281 25.363281 C 15.85744 25.554581 15.978695 25.828256 16.173828 26.222656 C 16.368962 26.617056 16.659162 27.116691 17.25 27.462891 C 17.796586 27.783191 18.569666 27.961981 19.703125 27.988281 A 0.50005 0.50005 0 0 0 19.800781 28 L 24.763672 28 A 0.50005 0.50005 0 0 0 25.183594 27.773438 L 28.90625 22.070312 A 0.50005 0.50005 0 0 0 28.949219 21.988281 L 30.443359 21.091797 A 0.50005 0.50005 0 0 0 30.539062 20.310547 L 27.003906 16.773438 A 0.50005 0.50005 0 0 0 26.642578 16.628906 z M 26.748047 17.9375 L 29.378906 20.566406 L 28.496094 21.095703 L 26.21875 18.820312 L 26.748047 17.9375 z M 25.451172 19.466797 L 27.847656 21.863281 L 24.494141 27 L 21.021484 27 L 22.826172 25.195312 C 23.382997 25.457212 24.07196 25.365503 24.529297 24.908203 C 25.110899 24.326603 25.110892 23.368709 24.529297 22.787109 C 23.947695 22.205509 22.989805 22.205509 22.408203 22.787109 C 21.951235 23.244109 21.858014 23.931681 22.119141 24.488281 L 20.304688 26.302734 L 20.314453 22.822266 L 25.451172 19.466797 z M 23.46875 23.34375 C 23.595663 23.34375 23.722539 23.394841 23.822266 23.494141 C 24.021713 23.693541 24.02172 24.001672 23.822266 24.201172 C 23.62282 24.400572 23.314681 24.400572 23.115234 24.201172 C 22.915781 24.001672 22.915788 23.693541 23.115234 23.494141 C 23.214964 23.394141 23.341837 23.34375 23.46875 23.34375 z M 31.408203 26 A 0.50004997 0.50004997 0 0 0 30.908203 26.5 L 30.908203 27.394531 C 30.598165 27.490531 30.299623 27.612019 30.011719 27.761719 L 29.382812 27.134766 A 0.50004997 0.50004997 0 0 0 28.675781 27.134766 L 27.132812 28.675781 A 0.50004997 0.50004997 0 0 0 27.132812 29.382812 L 27.763672 30.013672 C 27.612866 30.301672 27.487374 30.599756 27.390625 30.910156 L 26.5 30.910156 A 0.50004997 0.50004997 0 0 0 26 31.410156 L 26 33.591797 A 0.50004997 0.50004997 0 0 0 26.5 34.091797 L 27.392578 34.091797 C 27.488618 34.402697 27.61148 34.701634 27.761719 34.990234 L 27.132812 35.619141 A 0.50004997 0.50004997 0 0 0 27.132812 36.326172 L 28.675781 37.867188 A 0.50004997 0.50004997 0 0 0 29.382812 37.867188 L 30.013672 37.238281 C 30.300723 37.388581 30.598929 37.510822 30.908203 37.607422 L 30.908203 38.5 A 0.50004997 0.50004997 0 0 0 31.408203 39 L 33.591797 39 A 0.50004997 0.50004997 0 0 0 34.091797 38.5 L 34.091797 37.607422 C 34.401815 37.511422 34.700396 37.389934 34.988281 37.240234 L 35.617188 37.867188 A 0.50004997 0.50004997 0 0 0 36.324219 37.867188 L 37.867188 36.326172 A 0.50004997 0.50004997 0 0 0 37.867188 35.619141 L 37.236328 34.988281 C 37.387155 34.700281 37.512607 34.402197 37.609375 34.091797 L 38.5 34.091797 A 0.50004997 0.50004997 0 0 0 39 33.591797 L 39 31.410156 A 0.50004997 0.50004997 0 0 0 38.5 30.910156 L 37.607422 30.910156 C 37.511432 30.599456 37.388428 30.300219 37.238281 30.011719 L 37.867188 29.382812 A 0.50004997 0.50004997 0 0 0 37.867188 28.675781 L 36.324219 27.134766 A 0.50004997 0.50004997 0 0 0 35.617188 27.134766 L 34.986328 27.763672 C 34.699193 27.613272 34.401175 27.491131 34.091797 27.394531 L 34.091797 26.5 A 0.50004997 0.50004997 0 0 0 33.591797 26 L 31.408203 26 z M 31.908203 27 L 33.091797 27 L 33.091797 27.71875 A 0.50004997 0.50004997 0 0 0 33.480469 28.207031 C 33.963766 28.317131 34.423925 28.507984 34.84375 28.771484 A 0.50004997 0.50004997 0 0 0 35.462891 28.701172 L 35.970703 28.195312 L 36.806641 29.029297 L 36.300781 29.535156 A 0.50004997 0.50004997 0 0 0 36.230469 30.152344 C 36.49287 30.573044 36.682265 31.035731 36.791016 31.519531 A 0.50004997 0.50004997 0 0 0 37.279297 31.910156 L 38 31.910156 L 38 33.091797 L 37.28125 33.091797 A 0.50004997 0.50004997 0 0 0 36.792969 33.480469 C 36.682819 33.963769 36.492075 34.425903 36.228516 34.845703 A 0.50004997 0.50004997 0 0 0 36.298828 35.464844 L 36.806641 35.972656 L 35.970703 36.806641 L 35.464844 36.302734 A 0.50004997 0.50004997 0 0 0 34.847656 36.232422 C 34.426997 36.494722 33.964178 36.684169 33.480469 36.792969 A 0.50004997 0.50004997 0 0 0 33.091797 37.279297 L 33.091797 38 L 31.908203 38 L 31.908203 37.28125 A 0.50004997 0.50004997 0 0 0 31.519531 36.794922 C 31.036202 36.684822 30.576103 36.494069 30.15625 36.230469 A 0.50004997 0.50004997 0 0 0 29.537109 36.300781 L 29.029297 36.806641 L 28.193359 35.972656 L 28.699219 35.466797 A 0.50004997 0.50004997 0 0 0 28.769531 34.847656 C 28.50713 34.426956 28.317735 33.966122 28.208984 33.482422 A 0.50004997 0.50004997 0 0 0 27.720703 33.091797 L 27 33.091797 L 27 31.910156 L 27.71875 31.910156 A 0.50004997 0.50004997 0 0 0 28.207031 31.521484 C 28.317154 31.038184 28.507956 30.57605 28.771484 30.15625 A 0.50004997 0.50004997 0 0 0 28.701172 29.537109 L 28.193359 29.029297 L 29.029297 28.195312 L 29.535156 28.699219 A 0.50004997 0.50004997 0 0 0 30.152344 28.769531 C 30.573031 28.507131 31.035791 28.315831 31.519531 28.207031 A 0.50004997 0.50004997 0 0 0 31.908203 27.722656 L 31.908203 27 z M 19.625 28.730469 A 0.50005 0.50005 0 0 0 19.125 29.230469 L 19.125 29.742188 C 18.980813 29.792187 18.840484 29.847962 18.703125 29.914062 L 18.341797 29.554688 A 0.50005 0.50005 0 0 0 17.634766 29.554688 L 16.574219 30.615234 A 0.50005 0.50005 0 0 0 16.574219 31.322266 L 16.935547 31.683594 C 16.868817 31.821194 16.809774 31.960969 16.759766 32.105469 L 16.25 32.105469 A 0.50005 0.50005 0 0 0 15.75 32.605469 L 15.75 34.105469 A 0.50005 0.50005 0 0 0 16.25 34.605469 L 16.761719 34.605469 C 16.811209 34.749669 16.867474 34.889944 16.933594 35.027344 L 16.574219 35.388672 A 0.50005 0.50005 0 0 0 16.574219 36.095703 L 17.634766 37.15625 A 0.50005 0.50005 0 0 0 18.341797 37.15625 L 18.703125 36.794922 C 18.840543 36.861922 18.980686 36.91875 19.125 36.96875 L 19.125 37.480469 A 0.50005 0.50005 0 0 0 19.625 37.980469 L 21.125 37.980469 A 0.50005 0.50005 0 0 0 21.625 37.480469 L 21.625 36.96875 C 21.769342 36.91875 21.909375 36.861122 22.046875 36.794922 L 22.408203 37.15625 A 0.50005 0.50005 0 0 0 23.115234 37.15625 L 24.175781 36.095703 A 0.50005 0.50005 0 0 0 24.175781 35.386719 L 23.816406 35.027344 C 23.883006 34.889944 23.940294 34.749769 23.990234 34.605469 L 24.5 34.605469 A 0.50005 0.50005 0 0 0 25 34.105469 L 25 32.605469 A 0.50005 0.50005 0 0 0 24.5 32.105469 L 23.988281 32.105469 C 23.938711 31.961069 23.880707 31.821194 23.814453 31.683594 L 24.175781 31.322266 A 0.50005 0.50005 0 0 0 24.175781 30.615234 L 23.115234 29.554688 A 0.50005 0.50005 0 0 0 22.408203 29.554688 L 22.046875 29.916016 C 21.909258 29.849016 21.769536 29.790234 21.625 29.740234 L 21.625 29.230469 A 0.50005 0.50005 0 0 0 21.125 28.730469 L 19.625 28.730469 z M 20.125 29.730469 L 20.625 29.730469 L 20.625 30.068359 A 0.50005 0.50005 0 0 0 21.013672 30.554688 C 21.328821 30.626687 21.630541 30.751928 21.904297 30.923828 A 0.50005 0.50005 0 0 0 22.523438 30.853516 L 22.761719 30.615234 L 23.115234 30.96875 L 22.876953 31.205078 A 0.50005 0.50005 0 0 0 22.806641 31.824219 C 22.977733 32.098519 23.102908 32.399444 23.173828 32.714844 A 0.50005 0.50005 0 0 0 23.660156 33.105469 L 24 33.105469 L 24 33.605469 L 23.662109 33.605469 A 0.50005 0.50005 0 0 0 23.173828 33.994141 C 23.101988 34.309241 22.978505 34.609113 22.806641 34.882812 A 0.50005 0.50005 0 0 0 22.876953 35.503906 L 23.115234 35.742188 L 22.761719 36.09375 L 22.525391 35.857422 A 0.50005 0.50005 0 0 0 21.90625 35.787109 C 21.631933 35.958209 21.331056 36.081444 21.015625 36.152344 A 0.50005 0.50005 0 0 0 20.625 36.640625 L 20.625 36.980469 L 20.125 36.980469 L 20.125 36.642578 A 0.50005 0.50005 0 0 0 19.736328 36.154297 C 19.42115 36.082297 19.119485 35.959009 18.845703 35.787109 A 0.50005 0.50005 0 0 0 18.226562 35.855469 L 17.988281 36.09375 L 17.634766 35.740234 L 17.873047 35.501953 A 0.50005 0.50005 0 0 0 17.943359 34.884766 C 17.772267 34.610566 17.647092 34.309541 17.576172 33.994141 A 0.50005 0.50005 0 0 0 17.089844 33.603516 L 16.75 33.603516 L 16.75 33.103516 L 17.087891 33.103516 A 0.50005 0.50005 0 0 0 17.576172 32.714844 C 17.647982 32.399744 17.771525 32.098019 17.943359 31.824219 A 0.50005 0.50005 0 0 0 17.873047 31.205078 L 17.634766 30.966797 L 17.988281 30.613281 L 18.224609 30.849609 A 0.50005 0.50005 0 0 0 18.84375 30.919922 C 19.118067 30.748822 19.418944 30.625587 19.734375 30.554688 A 0.50005 0.50005 0 0 0 20.125 30.068359 L 20.125 29.730469 z M 32.5 30.001953 C 31.127873 30.001953 30 31.1276 30 32.5 C 30 33.8725 31.127903 35 32.5 35 C 33.872247 35 35 33.8722 35 32.5 C 35 31.128 33.872277 30.001953 32.5 30.001953 z M 32.5 31.001953 C 33.326123 31.001953 34 31.6741 34 32.5 C 34 33.3261 33.326153 34 32.5 34 C 31.674097 34 31 33.3257 31 32.5 C 31 31.6745 31.674127 31.001953 32.5 31.001953 z M 20.375 31.708984 C 19.472097 31.708984 18.728516 32.452269 18.728516 33.355469 C 18.728516 34.258669 19.472097 35 20.375 35 C 21.277959 35 22.021484 34.258369 22.021484 33.355469 C 22.021484 32.452469 21.277959 31.708984 20.375 31.708984 z M 20.375 32.708984 C 20.731841 32.708984 21.021484 32.998669 21.021484 33.355469 C 21.021484 33.712169 20.731841 34 20.375 34 C 20.018303 34 19.728516 33.711869 19.728516 33.355469 C 19.728516 32.998869 20.018303 32.708984 20.375 32.708984 z " color="#000" font-family="sans-serif" font-weight="400" overflow="visible" fill="#e2f3f5" class="color000 svgShape"></path></svg></g></svg>