<svg id="SvgjsSvg1001" width="288" height="288" xmlns="http://www.w3.org/2000/svg" version="1.1" xmlns:xlink="http://www.w3.org/1999/xlink" xmlns:svgjs="http://svgjs.com/svgjs"><defs id="SvgjsDefs1002"></defs><g id="SvgjsG1008" transform="matrix(1,0,0,1,0,0)"><svg xmlns="http://www.w3.org/2000/svg" width="288" height="288" viewBox="0 0 32 32"><path fill="#e2f3f5" d="M 25.351562 7 L 25.351562 7.0019531 L 25.351562 8.0019531 C 25.700547 8.0019531 26.203687 8.0018438 26.560547 8.0898438 C 26.738977 8.1348438 26.868547 8.2023656 26.929688 8.2597656 C 26.990828 8.3167656 27.015625 8.3477813 27.015625 8.4882812 L 27.015625 13.490234 C 27.015625 13.835034 27.16805 14.067216 27.324219 14.291016 C 27.480387 14.514916 27.667781 14.724422 27.847656 14.919922 C 28.027532 15.115522 28.200237 15.296541 28.314453 15.431641 C 28.324573 15.443641 28.324874 15.446031 28.333984 15.457031 C 28.219479 15.573831 28.03984 15.736928 27.851562 15.923828 C 27.473458 16.299128 26.994141 16.778528 26.994141 17.486328 L 26.994141 22.517578 C 26.994141 22.657878 26.968891 22.6838 26.888672 22.75 C 26.808462 22.816 26.646931 22.888441 26.447266 22.931641 C 26.047935 23.018641 25.584984 22.996094 25.351562 22.996094 L 25.351562 23.996094 C 25.464635 23.996094 26.072622 24.035203 26.658203 23.908203 C 26.950994 23.845203 27.257919 23.742284 27.525391 23.521484 C 27.792862 23.300584 27.994141 22.929178 27.994141 22.517578 L 27.994141 17.486328 C 27.994141 17.321928 28.223823 16.963112 28.556641 16.632812 C 28.723049 16.467613 28.898624 16.31175 29.050781 16.15625 C 29.126861 16.07825 29.197073 16.00155 29.263672 15.90625 C 29.330272 15.81125 29.416016 15.694609 29.416016 15.474609 C 29.416016 15.257309 29.341716 15.152388 29.28125 15.054688 C 29.22078 14.956688 29.152272 14.872856 29.078125 14.785156 C 28.929831 14.609856 28.754122 14.427087 28.583984 14.242188 C 28.413847 14.057188 28.250872 13.869197 28.144531 13.716797 C 28.038191 13.564397 28.015625 13.441181 28.015625 13.488281 L 28.015625 8.4863281 C 28.015625 8.1063281 27.853266 7.7545969 27.613281 7.5292969 C 27.373296 7.3039969 27.087551 7.1902406 26.808594 7.1191406 C 26.250679 6.9770406 25.67321 7 25.351562 7 z M 7.4804688 7.0019531 C 7.1588226 7.0019531 6.5813518 6.9789938 6.0234375 7.1210938 C 5.7444803 7.1920937 5.456782 7.30595 5.2167969 7.53125 C 4.9768118 7.75655 4.8164062 8.1082812 4.8164062 8.4882812 L 4.8164062 13.490234 C 4.8164062 13.443234 4.7938402 13.56625 4.6875 13.71875 C 4.5811594 13.87115 4.4181839 14.059141 4.2480469 14.244141 C 4.0779099 14.429041 3.9002466 14.611809 3.7519531 14.787109 C 3.6778061 14.875109 3.6112502 14.958941 3.5507812 15.056641 C 3.4903123 15.154641 3.4160156 15.259262 3.4160156 15.476562 C 3.4160156 15.696563 3.4998066 15.813003 3.5664062 15.908203 C 3.6330053 16.003203 3.7051715 16.080503 3.78125 16.158203 C 3.933407 16.313703 4.1070287 16.469566 4.2734375 16.634766 C 4.6062551 16.965066 4.8378906 17.323881 4.8378906 17.488281 L 4.8378906 22.519531 C 4.8378906 22.931131 5.0372157 23.302537 5.3046875 23.523438 C 5.5721593 23.744238 5.8810374 23.846656 6.1738281 23.910156 C 6.7594095 24.037056 7.3673968 23.998047 7.4804688 23.998047 L 7.4804688 22.998047 C 7.2470479 22.998047 6.7840956 23.019594 6.3847656 22.933594 C 6.1851006 22.890594 6.0216205 22.818153 5.9414062 22.751953 C 5.8611923 22.685953 5.8378906 22.659931 5.8378906 22.519531 L 5.8378906 17.488281 C 5.8378906 16.780481 5.3566199 16.301081 4.9785156 15.925781 C 4.7894635 15.738181 4.6105324 15.573931 4.4960938 15.457031 C 4.5048338 15.446031 4.505974 15.442641 4.515625 15.431641 C 4.6298406 15.296541 4.8044998 15.115522 4.984375 14.919922 C 5.1642502 14.724422 5.351644 14.514916 5.5078125 14.291016 C 5.663981 14.067216 5.8164064 13.835034 5.8164062 13.490234 L 5.8164062 8.4882812 C 5.8164062 8.3473812 5.8412018 8.3171656 5.9023438 8.2597656 C 5.9634848 8.2027656 6.0911011 8.1352438 6.2695312 8.0898438 C 6.6263917 7.9988438 7.1314852 8.0019531 7.4804688 8.0019531 L 7.4804688 7.0019531 z M 19.824219 7.0234375 C 19.490311 7.0774375 19.177456 7.2580813 18.966797 7.5507812 L 17.464844 9.6347656 L 17.484375 9.6484375 L 10.25 19.646484 L 9.34375 25.257812 L 14.376953 22.615234 L 21.583984 12.601562 L 21.585938 12.601562 L 21.896484 12.167969 L 23.085938 10.515625 C 23.50723 9.930225 23.372447 9.0990344 22.787109 8.6777344 L 20.804688 7.25 C 20.512014 7.0393 20.158126 6.9690375 19.824219 7.0234375 z M 19.982422 8.0019531 C 20.061064 7.9891656 20.145814 8.00845 20.220703 8.0625 L 22.203125 9.4882812 C 22.352914 9.5960812 22.383217 9.7817406 22.275391 9.9316406 L 21.082031 11.589844 L 18.570312 9.8105469 L 19.777344 8.1347656 C 19.831244 8.0598656 19.90378 8.0147406 19.982422 8.0019531 z M 18.003906 10.636719 L 20.496094 12.402344 L 14.160156 21.205078 L 11.658203 19.404297 L 18.003906 10.636719 z M 11.160156 20.279297 L 13.486328 21.953125 L 10.650391 23.441406 L 11.160156 20.279297 z " color="#000" enable-background="accumulate" font-family="sans-serif" font-weight="400" overflow="visible" style="line-height:normal;text-indent:0;text-align:start;text-decoration-line:none;text-decoration-style:solid;text-decoration-color:#000;text-transform:none;block-progression:tb;white-space:normal;isolation:auto;mix-blend-mode:normal;solid-color:#000;solid-opacity:1" class="color373449 svgShape"></path></svg></g></svg>