<svg id="SvgjsSvg1031" width="288" height="288" xmlns="http://www.w3.org/2000/svg" version="1.1" xmlns:xlink="http://www.w3.org/1999/xlink" xmlns:svgjs="http://svgjs.com/svgjs"><defs id="SvgjsDefs1032"></defs><g id="SvgjsG1033" transform="matrix(1,0,0,1,0,0)"><svg xmlns="http://www.w3.org/2000/svg" viewBox="0 0 32 32" width="288" height="288"><path d="M10.34,29.66A8,8,0,0,1,4.69,16l4.25-4.25,1.41,1.41L6.1,17.41a6,6,0,1,0,8.49,8.49l4.18-4.19,1.42,1.42L16,27.31A8,8,0,0,1,10.34,29.66ZM16.71,21,21,16.71a4,4,0,0,0-5.66-5.66,1,1,0,0,1-1.41-1.42L17.41,6.1a6,6,0,1,1,8.49,8.49l-4.23,4.22,1.42,1.42L27.31,16A8,8,0,1,0,16,4.69L12.47,8.22a3,3,0,0,0,0,4.25,3,3,0,0,0,4.24,0,2.06,2.06,0,0,1,2.83,0,2,2,0,0,1,.58,1.42,2,2,0,0,1-.58,1.41l-4.25,4.25a2.06,2.06,0,0,1-2.83,0,2,2,0,0,1-.58-1.42,2,2,0,0,1,.58-1.41l.72-.72-1.41-1.41-.72.71A4,4,0,0,0,16.71,21Zm1.41-5.66-1.41-1.41-2.83,2.83,1.41,1.41Z" data-name="50 Link, Basic, Essential" fill="#e2f3f5" class="color000 svgShape"></path></svg></g></svg>