<svg id="SvgjsSvg1043" width="288" height="288" xmlns="http://www.w3.org/2000/svg" version="1.1" xmlns:xlink="http://www.w3.org/1999/xlink" xmlns:svgjs="http://svgjs.com/svgjs"><defs id="SvgjsDefs1044"></defs><g id="SvgjsG1045" transform="matrix(1,0,0,1,0,0)"><svg xmlns="http://www.w3.org/2000/svg" viewBox="0 0 32 32" width="288" height="288"><path fill="#e2f3f5" d="M22.14,9.12V22.89A3.49,3.49,0,0,1,17.05,26l-4.91-2.52a1,1,0,0,1-.44-1.34,1,1,0,0,1,1.35-.44L18,24.22a1.51,1.51,0,0,0,1.47,0,1.48,1.48,0,0,0,.71-1.28V9.12A1.5,1.5,0,0,0,18,7.78l-7.27,3.74a3.52,3.52,0,0,1-1.6.38H4.5A1.5,1.5,0,0,0,3,13.4v5.2a1.5,1.5,0,0,0,1.5,1.5H9.09a1,1,0,0,1,0,2H4.5A3.5,3.5,0,0,1,1,18.6V13.4A3.5,3.5,0,0,1,4.5,9.9H9.09a1.49,1.49,0,0,0,.69-.16L17.05,6a3.49,3.49,0,0,1,5.09,3.11ZM28.84,16l1.87-1.87a1,1,0,0,0,0-1.41,1,1,0,0,0-1.42,0l-1.87,1.87-1.86-1.87a1,1,0,0,0-1.42,0,1,1,0,0,0,0,1.41L26,16l-1.87,1.87a1,1,0,1,0,1.42,1.41l1.86-1.87,1.87,1.87a1,1,0,1,0,1.42-1.41Z" class="color22242b svgShape"></path></svg></g></svg>