<svg id="SvgjsSvg1021" width="288" height="288" xmlns="http://www.w3.org/2000/svg" version="1.1" xmlns:xlink="http://www.w3.org/1999/xlink" xmlns:svgjs="http://svgjs.com/svgjs"><defs id="SvgjsDefs1022"></defs><g id="SvgjsG1023" transform="matrix(1,0,0,1,0,0)"><svg xmlns="http://www.w3.org/2000/svg" viewBox="0 0 16 16" width="288" height="288"><path d="M5.42773,14c-1.8374,0 -3.51709,-0.470703 -5.13477,-1.43945c-0.202637,-0.121094 -0.292969,-0.367188 -0.216309,-0.59082c0.0776367,-0.223633 0.305664,-0.363281 0.533691,-0.333984c1.13232,0.140625 2.34521,-0.101562 3.29053,-0.611328c-1.07764,-0.40625 -2.01465,-1.30078 -2.50732,-2.46094c-0.076172,-0.180664 -0.0405275,-0.388672 0.092285,-0.533203c0.0581055,-0.0634766 0.129883,-0.109375 0.208008,-0.135742c-0.703613,-0.663086 -1.31787,-1.6582 -1.31787,-2.96289c1.11022e-16,-0.196289 0.114258,-0.374023 0.292969,-0.455078c0.0908202,-0.0410156 0.191406,-0.0527344 0.285644,-0.0390625c-0.430176,-0.986328 -0.552734,-2.25781 0.136231,-3.49707c0.0825195,-0.147461 0.233887,-0.244141 0.402832,-0.255859c0.168457,-0.0175781 0.33252,0.0625 0.434082,0.199219c0.638672,0.849609 2.41064,2.78125 5.55176,3.16895c-0.0498045,-1.00098 0.15918,-2.59277 1.43945,-3.38965c0.734863,-0.458008 1.37207,-0.663086 2.06592,-0.663086c0.895508,0 1.6377,0.301758 2.375,0.972656c0.536133,-0.145508 1.32471,-0.510742 1.48828,-0.632812c0.169922,-0.125977 0.399414,-0.130859 0.575684,-0.0146484c0.175781,0.117188 0.258789,0.332031 0.208008,0.537109c-0.0605469,0.241211 -0.168945,0.49707 -0.308594,0.746094c0.194336,-0.102539 0.432617,-0.0595703 0.585938,0.0976562c0.156738,0.162109 0.185547,0.40918 0.0708008,0.602539c-0.393066,0.662109 -1.01855,1.28223 -1.46094,1.64062c0.15918,2.37988 -0.820801,5.04492 -2.59717,7.02246c-1.75146,1.9502 -4.05322,3.02539 -6.48047,3.02832c-0.0043945,0 -0.0092773,0 -0.0136718,0Z" transform="translate(-.05 1)" fill="#e2f3f5" class="color000 svgShape"></path></svg></g></svg>